<svg width="512" height="512" viewBox="0 0 512 512" fill="none" xmlns="http://www.w3.org/2000/svg">
<g clip-path="url(#clip0_9_158)">
<path d="M362.213 255.946C362.213 314.618 314.66 362.182 256 362.182C197.34 362.182 149.787 314.618 149.787 255.946C149.787 197.274 197.34 149.711 256 149.711C314.66 149.711 362.213 197.274 362.213 255.946Z" fill="#E4C837"/>
<path d="M294.49 161.973L258.327 1.84061C257.771 -0.619185 254.264 -0.611318 253.72 1.85094L214.302 180.1C214.175 180.674 213.839 181.179 213.359 181.518L163.096 217.026C162.843 217.205 162.557 217.333 162.255 217.401L1.84023 253.644C-0.613415 254.198 -0.613409 257.695 1.84024 258.249L162.047 294.445C162.482 294.543 162.88 294.763 163.196 295.078L216.876 348.77C217.192 349.086 217.411 349.484 217.51 349.919L253.698 510.159C254.252 512.614 257.748 512.614 258.302 510.159L294.49 349.919C294.589 349.484 294.808 349.086 295.124 348.77L348.805 295.078C349.12 294.763 349.518 294.543 349.953 294.445L510.16 258.249C512.613 257.695 512.613 254.198 510.16 253.644L349.953 217.448C349.518 217.35 349.12 217.13 348.805 216.814L295.124 163.122C294.808 162.807 294.589 162.409 294.49 161.973Z" fill="#E4C837"/>
<path d="M401.736 146.532C402.82 147.988 405.083 147.774 405.842 146.124L436.257 79.9628C437.173 77.9716 435.118 75.916 433.127 76.8316L367.443 107.04C365.813 107.79 365.58 110.018 366.999 111.117C380.12 121.288 391.816 133.209 401.736 146.532Z" fill="#E4C837"/>
<path d="M144.692 110.447C146.122 109.352 145.895 107.113 144.259 106.361L80.0532 76.8316C78.0625 75.916 76.0074 77.9716 76.9227 79.9628L106.446 144.182C107.198 145.818 109.436 146.046 110.531 144.615C120.358 131.773 131.853 120.276 144.692 110.447Z" fill="#E4C837"/>
<path d="M365.516 405.146C363.873 404.391 363.653 402.139 365.097 401.049C378.697 390.79 390.815 378.669 401.073 365.066C402.162 363.621 404.413 363.842 405.169 365.485L436.257 433.11C437.173 435.102 435.118 437.157 433.127 436.242L365.516 405.146Z" fill="#E4C837"/>
<path d="M146.609 401.713C148.064 402.798 147.85 405.061 146.201 405.819L80.0532 436.242C78.0625 437.157 76.0074 435.102 76.9227 433.11L107.125 367.413C107.875 365.782 110.102 365.549 111.201 366.968C121.369 380.092 133.289 391.791 146.609 401.713Z" fill="#E4C837"/>
</g>
<defs>
<clipPath id="clip0_9_158">
<rect width="512" height="512" fill="white"/>
</clipPath>
</defs>
</svg>
