<svg width="1571" height="896" viewBox="0 0 1571 896" fill="none" xmlns="http://www.w3.org/2000/svg">
<path d="M458.633 800.213C498.77 881.534 424.746 881.534 236.559 800.213C80.9663 731.412 2.77992 718.232 2 760.672V895.5H1569V800.213C1376.54 689.262 1302.51 689.262 1346.93 800.213C1394.74 911.163 1320.71 911.163 1124.85 800.213C932.389 693.045 858.365 693.045 902.78 800.213C956.983 931 903.755 907.381 680.706 800.213C488.242 718.891 414.218 718.891 458.633 800.213Z" fill="#040719"/>
<path d="M1569 800.213C1376.54 689.262 1302.51 689.262 1346.93 800.213C1394.74 911.163 1320.71 911.163 1124.85 800.213C932.389 693.045 858.365 693.045 902.779 800.213C956.568 930 903.755 907.381 680.706 800.213C488.242 718.891 414.218 718.891 458.633 800.213C498.77 881.534 424.746 881.534 236.559 800.213C83.9249 732.721 5.7813 718.753 2.12842 758.311" stroke="#E4C837" stroke-width="4" stroke-linecap="round"/>
<path d="M223.996 89.6232C268.395 -21.6 194.396 -21.6 2 89.6232V0H1569L1568.28 46.6718C1564.05 7.15076 1485.95 21.4679 1333.97 89.6232C1143.93 175.903 1069.93 175.903 1111.98 89.6232C1156.38 -6.87927 1082.38 -6.87927 889.982 89.6232C692.78 186.126 618.781 186.126 667.987 89.6232C712.386 10.2949 638.387 10.2949 445.991 89.6232C259.961 168.951 185.962 168.951 223.996 89.6232Z" fill="#040719"/>
<path d="M2 89.6232C194.396 -21.6 268.395 -21.6 223.996 89.6232C185.962 168.951 259.961 168.951 445.991 89.6232C638.387 10.2949 712.386 10.2949 667.987 89.6232C618.781 186.126 692.78 186.126 889.982 89.6232C1082.38 -6.87927 1156.38 -6.87927 1111.98 89.6232C1069.93 175.903 1143.93 175.903 1333.97 89.6232C1485.95 21.4679 1564.05 7.15078 1568.28 46.6718" stroke="#E4C837" stroke-width="4" stroke-linecap="round"/>
</svg>
