<svg width="2882" height="180" viewBox="0 0 2882 180" fill="none" xmlns="http://www.w3.org/2000/svg">
<path d="M840.242 84.2128C914.011 165.534 777.962 165.534 432.095 84.2128C146.132 15.4124 2.43341 2.23212 1 44.672V179.5H2880.98V84.2128C2527.25 -26.7376 2391.2 -26.7376 2472.83 84.2128C2560.7 195.163 2424.66 195.163 2064.69 84.2128C1710.96 -22.9552 1574.91 -22.9552 1656.54 84.2128C1756.16 215 1658.33 191.381 1248.39 84.2128C894.662 2.8912 758.613 2.8912 840.242 84.2128Z" fill="#040719"/>
<path d="M2880.98 84.2128C2527.25 -26.7376 2391.2 -26.7376 2472.83 84.2128C2560.7 195.163 2424.66 195.163 2064.69 84.2128C1710.96 -22.9552 1574.91 -22.9552 1656.54 84.2128C1755.4 214 1658.33 191.381 1248.39 84.2128C894.662 2.8912 758.613 2.8912 840.242 84.2128C914.011 165.534 777.962 165.534 432.095 84.2128C151.569 16.7206 7.94969 2.75349 1.23608 42.3113" stroke="#E4C837" stroke-linecap="round"/>
</svg>
