<svg width="2879" height="163" viewBox="0 0 2879 163" fill="none" xmlns="http://www.w3.org/2000/svg">
<path d="M408.724 89.6232C490.269 -21.6 354.361 -21.6 1 89.6232V0H2879L2877.67 46.6718C2869.92 7.15076 2726.47 21.4679 2447.34 89.6232C2098.3 175.903 1962.39 175.903 2039.62 89.6232C2121.16 -6.87927 1985.26 -6.87927 1631.9 89.6232C1269.71 186.126 1133.8 186.126 1224.17 89.6232C1305.72 10.2949 1169.81 10.2949 816.448 89.6232C474.779 168.951 338.871 168.951 408.724 89.6232Z" fill="#040719"/>
<path d="M1 89.6232C354.361 -21.6 490.269 -21.6 408.724 89.6232C338.871 168.951 474.779 168.951 816.448 89.6232C1169.81 10.2949 1305.72 10.2949 1224.17 89.6232C1133.8 186.126 1269.71 186.126 1631.9 89.6232C1985.26 -6.87927 2121.16 -6.87927 2039.62 89.6232C1962.39 175.903 2098.3 175.903 2447.34 89.6232C2726.47 21.4679 2869.92 7.15078 2877.67 46.6718" stroke="#E4C837" stroke-linecap="round"/>
</svg>
