<svg width="1440" height="261" viewBox="0 0 1440 261" fill="none" xmlns="http://www.w3.org/2000/svg">
<path d="M204.862 224.312C245.634 168.7 177.68 168.7 1 224.312V0H1440L1439.33 202.836C1435.46 183.075 1363.74 190.234 1224.17 224.312C1049.65 267.451 981.697 267.451 1020.31 224.312C1061.08 176.06 993.128 176.06 816.448 224.312C635.354 272.563 567.4 272.563 612.586 224.312C653.358 184.647 585.404 184.647 408.724 224.312C237.89 263.976 169.936 263.976 204.862 224.312Z" fill="#040719"/>
<path d="M1 224.312C177.68 168.7 245.634 168.7 204.862 224.312C169.936 263.976 237.89 263.976 408.724 224.312C585.404 184.647 653.358 184.647 612.586 224.312C567.4 272.563 635.354 272.563 816.448 224.312C993.128 176.06 1061.08 176.06 1020.31 224.312C981.697 267.451 1049.65 267.451 1224.17 224.312C1363.74 190.234 1435.46 183.075 1439.33 202.836" stroke="#E4C837" stroke-linecap="round"/>
</svg>
