<svg width="435" height="435" viewBox="0 0 435 435" fill="none" xmlns="http://www.w3.org/2000/svg">
<path d="M432.5 219.895L301.649 248.953C292.56 273.234 273.268 292.531 248.992 301.622L219.894 432.5C219.425 434.575 216.469 434.575 216 432.5L186.009 301.622C161.733 292.531 142.44 273.234 133.351 248.953L2.50002 219.895C0.424964 219.426 0.424958 216.469 2.50002 216L133.351 185.957C142.529 161.438 162.111 142.002 186.722 133.024L216.104 2.50874C216.564 0.426397 219.53 0.419743 220 2.5L248.992 133.288C273.268 142.379 292.56 161.676 301.649 185.957L432.5 216C434.575 216.469 434.575 219.426 432.5 219.895Z" fill="#E4B737"/>
<path d="M344.221 124.578C343.58 125.973 341.667 126.154 340.75 124.923C332.36 113.655 322.469 103.573 311.372 94.9722C310.172 94.0423 310.369 92.1586 311.748 91.5244L367.297 65.9767C368.98 65.2024 370.718 66.9408 369.944 68.6247L344.221 124.578Z" fill="#E4B737"/>
<path d="M123 90.9495C124.384 91.586 124.576 93.4791 123.366 94.4051C112.508 102.717 102.787 112.441 94.4763 123.301C93.5505 124.511 91.6577 124.319 91.0214 122.935L65.8256 69.3611C65.0515 67.6772 66.7895 65.9388 68.4731 66.7131L123 90.9495Z" fill="#E4B737"/>
<path d="M309.763 340.169C308.542 341.09 308.729 342.994 310.118 343.634L367.234 370.408C368.918 371.183 370.656 369.444 369.882 367.76L343.653 310.092C343.013 308.702 341.11 308.516 340.188 309.737C331.514 321.242 321.265 331.492 309.763 340.169Z" fill="#E4B737"/>
<path d="M124.643 344.203C126.037 343.561 126.219 341.647 124.987 340.73C113.723 332.339 103.642 322.445 95.0433 311.346C94.1136 310.146 92.2303 310.343 91.5962 311.722L66.0066 367.233C65.2324 368.917 66.9705 370.656 68.654 369.882L124.643 344.203Z" fill="#E4B737"/>
</svg>
