<svg width="816" height="408" viewBox="0 0 816 408" fill="none" xmlns="http://www.w3.org/2000/svg">
<path d="M815.917 407.959L407.669 407.669L0 407.959C0 182.649 182.649 0 407.959 0C633.268 0 815.917 182.649 815.917 407.959Z" fill="#A38F27"/>
<path d="M679.724 407.752L407.669 407.669L135.779 407.752C135.779 257.545 257.545 135.779 407.752 135.779C557.958 135.779 679.724 257.545 679.724 407.752Z" fill="#C9B030"/>
<path d="M589.149 407.834L407.669 407.669L226.519 407.834C226.519 307.697 307.697 226.519 407.834 226.519C507.972 226.519 589.149 307.697 589.149 407.834Z" fill="#E3C636"/>
<path d="M528.545 407.669H407.669H286.792C286.792 340.911 340.911 286.792 407.669 286.792C474.427 286.792 528.545 340.911 528.545 407.669Z" fill="#FFDF3D"/>
</svg>
